<svg xmlns="http://www.w3.org/2000/svg" viewBox="0 0 1183.32 511.5"><defs><style>.cls-1,.cls-2{fill:none;stroke-miterlimit:10;}.cls-1{stroke:#cecece;}.cls-2{stroke:#000;}.cls-3{fill:#fff;}</style></defs><g><g><polygon points="696.91 278.17 696.46 305.63 774.37 361.29 810.85 361 810.82 278.55 696.91 278.17"/><polyline class="cls-1" points="1183.32 143.63 918.82 143.63 918.82 381.43"/><polyline class="cls-2" points="1182.82 381.32 767.82 381.32 654.82 302.37 567.17 302.37"/><polyline class="cls-1" points="567.17 302.37 487.82 302.37 487.82 406.51"/><line class="cls-1" x1="405.32" y1="406.52" x2="611.32" y2="406.52"/><polyline class="cls-2" points="566.82 302.79 567.17 58.8 566.82 0"/><polyline class="cls-2" points="566.82 58.8 330.82 162.94 330.82 284.73 129.82 442.63 129.82 511.5"/><rect class="cls-2" x="638.82" y="60.48" width="75" height="181.34"/><polygon class="cls-2" points="534.82 245.25 476.82 245.25 476.82 115.07 534.82 91.55 534.82 245.25"/><rect class="cls-2" x="834.56" y="187.3" width="66" height="158.74"/><polygon class="cls-2" points="633.82 320.85 551.82 320.85 551.82 346.88 563.82 346.88 563.82 356.12 538.82 356.12 538.82 377.96 563.82 377.96 574.82 377.96 606.82 377.96 606.82 346.88 633.82 346.88 633.82 320.85"/><polygon class="cls-2" points="692.82 400.64 692.82 377.96 637.82 377.96 637.82 410.71 658.82 410.71 658.82 445.99 712.82 445.99 712.82 400.64 692.82 400.64"/><rect class="cls-2" x="736.82" y="403.16" width="35" height="36.96"/><polygon class="cls-2" points="908.84 429.19 794.84 429.19 794.84 459.43 908.84 459.43 908.84 488.83 950.84 488.83 950.84 459.43 950.84 429.19 908.84 429.19"/><polygon class="cls-2" points="379.82 394.76 314.82 394.76 314.82 323.58 343.32 301.53 379.82 301.53 379.82 394.76"/><rect class="cls-2" x="401.82" y="235.18" width="44" height="131.02"/><rect class="cls-2" x="212.82" y="409.87" width="135" height="85.67"/><rect class="cls-2" x="197.3" y="179.74" width="86" height="105.83"/><line class="cls-2" x1="10.89" x2="10.89" y2="511.5"/><rect y="152.45" width="22.65" height="281.37"/><path d="M70,305.4c3.68-3.22,5.37-5.56,5.37-7.57a2.06,2.06,0,0,0-2.16-2.32,3.27,3.27,0,0,0-2.43,1.36L69.9,296a4.48,4.48,0,0,1,3.46-1.72,3.21,3.21,0,0,1,3.41,3.47c0,2.34-1.84,4.72-4.6,7.33.61-.05,1.33-.11,1.93-.11h3.25v1.26H70Z"/><circle class="cls-2" cx="73.7" cy="300.61" r="13.25"/><line class="cls-2" x1="60.82" y1="301" x2="19.82" y2="301"/><path d="M641.52,44.21h-5.19v-.82h2.09v-1h1v1h2.09ZM638.92,48c-1.26,0-2.13-.68-2.13-1.71s.87-1.71,2.13-1.71,2.13.69,2.13,1.71S640.19,48,638.92,48Zm-.29,2.33h4.9v.84h-5.91V48.6h1Zm.29-3.13c.7,0,1.18-.34,1.18-.91s-.48-.91-1.18-.91-1.17.34-1.17.91S638.23,47.24,638.92,47.24Zm5.51-2v.85h-1.25v3h-1V42.36h1v2.87Z"/><path d="M647.72,47.18A2.16,2.16,0,1,1,650.06,45,2.18,2.18,0,0,1,647.72,47.18Zm0-.87A1.29,1.29,0,1,0,646.36,45,1.26,1.26,0,0,0,647.72,46.31Zm4.51,3.34c0,1.08-1.11,1.73-2.93,1.73s-2.93-.65-2.93-1.73,1.13-1.74,2.93-1.74S652.23,48.56,652.23,49.65Zm-1,0c0-.6-.71-.92-1.94-.92s-1.93.32-1.93.92.71.91,1.93.91S651.24,50.24,651.24,49.65Zm.9-5.22v1.1h1.21v.85h-1.21v1.28h-1V42.35h1v1.23h1.21v.85Z"/><path d="M662.17,46.77v.83h-7.95v-.83h3.46V45.56h1v1.21Zm-7.55-1.53c1.62-.17,2.74-.86,2.89-1.66H655v-.83h6.49v.83h-2.57c.14.8,1.27,1.49,2.9,1.66l-.36.8a4,4,0,0,1-3.22-1.74A4,4,0,0,1,655,46Zm6.59,4.56c0,1-1.13,1.58-3,1.58s-3-.57-3-1.58,1.14-1.58,3-1.58S661.21,48.79,661.21,49.8Zm-1,0c0-.52-.72-.79-2-.79s-2,.27-2,.79.71.79,2,.79S660.19,50.33,660.19,49.8Z"/><path d="M668.38,44h-5.19v-.82h2.09v-.94h1v.94h2.09Zm-2.6,3.52c-1.27,0-2.13-.64-2.13-1.6s.86-1.58,2.13-1.58,2.13.63,2.13,1.58S667.05,47.56,665.78,47.56Zm3.27.43h1v3.28h-5.61V48h1v.83h3.63Zm-3.27-1.2c.7,0,1.18-.31,1.18-.83s-.48-.82-1.18-.82-1.17.31-1.17.82S665.08,46.79,665.78,46.79Zm3.27,2.83h-3.63v.83h3.63Zm2.24-4.17H670v2.17h-1V42.36h1V44.6h1.25Z"/><path d="M676.8,43.31a6.68,6.68,0,0,1-4.07,6.46l-.54-.82a5.66,5.66,0,0,0,3.57-4.8h-3.13v-.84Zm2.59-1v9h-1v-9Z"/><path d="M685.55,46.83v.76H688v2.18h-5v.74h5.26v.79H682V49h5v-.67h-5v-.78h2.52v-.76h-3.46V46h8v.82Zm2.73-1.31a4.37,4.37,0,0,1-3.22-1.69,4.39,4.39,0,0,1-3.22,1.69l-.34-.79c1.76-.18,3-1.06,3-2.07V42.4h1v.26c0,1,1.29,1.89,3,2.07Z"/><path d="M694.21,46.71a2.3,2.3,0,1,1-1.76-3.79,2.29,2.29,0,0,1,1.76.78h2.11V42.37h1V49h-1V46.71Zm-1.76-.11a1.32,1.32,0,0,0,1.33-1.4,1.34,1.34,0,1,0-1.33,1.4Zm5.1,3.77v.84h-5.92V48.33h1v2Zm-2.92-5.84a2.29,2.29,0,0,1,0,1.34h1.69V44.53Z"/><path d="M707,47.61h-3.51v3.77h-1V47.61H699v-.85h5.72a14.24,14.24,0,0,0,.25-3h-5v-.83h6v.79a16.53,16.53,0,0,1-.22,3.06H707Z"/><path d="M710.35,47.24c-.84,0-1.64,0-2.33,0l-.12-.84a48.61,48.61,0,0,0,5.63-.27l.08.74a19.07,19.07,0,0,1-2.26.26v1.74h-1Zm-1.78-3c0-1,.89-1.58,2.18-1.58s2.17.63,2.17,1.58-.89,1.59-2.17,1.59S708.57,45.24,708.57,44.28Zm6.86,6.09v.84h-6.34V48.54h1v1.83Zm-5.91-6.09c0,.51.5.83,1.23.83s1.22-.32,1.22-.83-.5-.82-1.22-.82S709.52,43.77,709.52,44.28Zm4.7,3.37v-5.3h1v6.86h-1v-.84H712.5v-.72Z"/><path d="M836.33,174a14.59,14.59,0,0,0,2.76-.19l.09.84a16.82,16.82,0,0,1-3.24.18h-.6l0-5.9,3.35,0v.83l-2.36,0v1.61l2,0v.81l-2,0Zm3.65-5.87h1l-.08,8.41h-1l0-4.39h-1.16v-.85H840Zm2.83-.18-.09,9h-1l.09-9Z"/><path d="M845.8,173.89a21.55,21.55,0,0,0,4.05-.37l.1.86a22.14,22.14,0,0,1-4.41.39h-.77l.05-5.87h1Zm6-5.81-.09,9h-1l.09-9Z"/><path d="M861.61,175.19V176l-8.17-.08v-.85Zm-.78-1.77a3.48,3.48,0,0,0-6.66-.06l-.43-.85c1.78-.32,3.24-1.69,3.26-3.12v-.68h1.09v.68c0,1.44,1.42,2.84,3.2,3.18Z"/><path d="M867.45,173.28a3.41,3.41,0,0,1-2.1-1.83,3.71,3.71,0,0,1-2.26,2.08l-.51-.82a3.09,3.09,0,0,0,2.24-2.86v-.18H862.9v-.83l4.84,0v.83h-1.89v.17a2.79,2.79,0,0,0,2.11,2.62Zm2.33,2.29c0,1.07-1.17,1.7-3,1.68s-3-.67-3-1.74,1.17-1.7,3-1.68S869.79,174.49,869.78,175.57Zm-1,0c0-.59-.72-.91-2-.92s-2,.29-2,.88.72.91,2,.92S868.75,176.14,868.76,175.56Zm2.25-5.1v.85h-1.28l0,2.35h-1l.05-5.4h1l0,2.2Z"/><path d="M703.57,258.73h-6.5V257.5h2.45v-1.18h1.59v1.18h2.47Zm-3.25,4.65c-1.58,0-2.71-.86-2.71-2.13s1.13-2.12,2.71-2.12,2.71.87,2.71,2.12S701.9,263.38,700.32,263.38Zm-.09,2.55h5.93v1.26h-7.52V264h1.59Zm.09-3.75c.7,0,1.2-.32,1.2-.93s-.5-.92-1.2-.92-1.2.32-1.2.92S699.61,262.18,700.32,262.18Zm6.91-2.48V261h-1.46v3.59h-1.59v-8.27h1.59v3.37Z"/><path d="M711.19,262.29a2.7,2.7,0,1,1,3-2.67A2.77,2.77,0,0,1,711.19,262.29Zm5.74,2.9c0,1.38-1.45,2.2-3.73,2.2s-3.74-.82-3.74-2.2,1.45-2.18,3.74-2.18S716.93,263.83,716.93,265.19ZM711.19,261a1.35,1.35,0,1,0-1.45-1.34A1.32,1.32,0,0,0,711.19,261Zm4.17,4.23c0-.63-.76-.94-2.16-.94s-2.17.31-2.17.94.75.95,2.17.95S715.36,265.84,715.36,265.19Zm1.45-6.21v1.11h1.41v1.29h-1.41v1.39h-1.59v-6.44h1.59v1.36h1.41V259Z"/><path d="M723.22,258.79a5.22,5.22,0,0,0,2.55,4.87l-1,1.25a5,5,0,0,1-2.38-3,5.25,5.25,0,0,1-2.56,3.18l-1-1.28a5.38,5.38,0,0,0,2.7-5v-1.61h1.6Zm6.19,3.11H727.8v5.48h-1.58V256.33h1.58v4.25h1.61Z"/><path d="M736.31,261c0,2.44-1.24,4-2.9,4s-2.91-1.52-2.91-4,1.24-3.93,2.91-3.93S736.31,258.61,736.31,261ZM732,261c0,1.65.56,2.52,1.38,2.52s1.38-.87,1.38-2.52-.57-2.5-1.38-2.5S732,259.4,732,261Zm7.31-4.71V267.4h-1.58V256.32Z"/><path d="M750.5,256.32V267.4h-1.58v-5.92h-2v3.32h-5.3v-7.6h1.57v2.66h2.17V257.2h1.56v3h2v-3.89Zm-5.12,4.77h-2.17v2.45h2.17Z"/><path d="M754.14,263.59a19.74,19.74,0,0,0,3-.28l.12,1.29a20.49,20.49,0,0,1-3.94.3h-.77v-7.3h4.09v1.29h-2.53Zm7.61-7.27v11.06h-1.5v-5.53h-1v5h-1.47V256.54h1.47v4h1v-4.26Z"/><path d="M769.81,258.55h-6.5V257.3h2.45v-1h1.59v1h2.46ZM766.56,263c-1.58,0-2.71-.82-2.71-2s1.13-2,2.71-2,2.71.83,2.71,2S768.16,263,766.56,263Zm-1.92.75H772v3.68h-1.59V265h-5.78Zm1.92-1.95c.71,0,1.2-.27,1.2-.83s-.49-.83-1.2-.83-1.2.27-1.2.83S765.84,261.76,766.56,261.76Zm6.91-1.28H772v2.77h-1.59v-6.92H772v2.84h1.46Z"/><path d="M784.35,264.77v1.28h-10v-1.28h2.1v-3.48H778v3.48h1.17v-3.48h1.55v3.48Zm-2.86-1.47a24.83,24.83,0,0,0,.37-4.76h-6.54v-1.26h8.12v1.07a28.2,28.2,0,0,1-.37,5.11Z"/><path d="M802.82,410.09v5h-1v-2h-1.88v1.65h-4.15v-4.19h1v1.28h2.13v-1.27h1v1.69h1.88v-2.16Zm-3.92,2.53h-2.13v1.27h2.13Zm2.89,2.83h1V419H797v-3.55h1v1h3.82Zm0,1.77H798v.95h3.82Z"/><path d="M809.88,411.79h-5.32V411h2.15V410h1V411h2.15Zm-2.67,3.68c-1.29,0-2.18-.66-2.18-1.64s.89-1.65,2.18-1.65,2.19.66,2.19,1.65S808.51,415.47,807.21,415.47Zm-1.55.71h5.93v2.94h-1V417h-4.9Zm1.55-1.5c.72,0,1.21-.32,1.21-.85s-.49-.86-1.21-.86-1.2.32-1.2.86S806.5,414.68,807.21,414.68Zm5.66-1.32h-1.28v2.38h-1v-5.65h1v2.42h1.28Z"/><path d="M819.08,411.79h-5.32V411h2.15V410h1V411h2.15Zm-2.66,3.68c-1.3,0-2.19-.66-2.19-1.64s.89-1.65,2.19-1.65,2.18.66,2.18,1.65S817.71,415.47,816.42,415.47Zm-1.56.71h5.93v2.94h-1V417h-4.9Zm1.56-1.5c.71,0,1.2-.32,1.2-.85s-.49-.86-1.2-.86-1.21.32-1.21.86S815.7,414.68,816.42,414.68Zm5.65-1.32h-1.28v2.38h-1v-5.65h1v2.42h1.28Z"/><path d="M827.53,414.57v.76h2.55v2.18H825v.74h5.39V419h-6.41v-2.26h5.14v-.67h-5.16v-.78h2.58v-.76h-3.55v-.82h8.17v.82Zm2.8-1.31a4.06,4.06,0,0,0-6.61,0l-.35-.79c1.8-.18,3.12-1.07,3.12-2.08v-.26h1.06v.26c0,1,1.32,1.9,3.13,2.08Z"/><path d="M837,415.18a3.51,3.51,0,0,1-2.09-1.93,3.76,3.76,0,0,1-2.23,2.17l-.53-.82a3.17,3.17,0,0,0,2.21-2.94v-.13h-1.91v-.83h4.82v.83h-1.88v.12a3,3,0,0,0,2.12,2.72Zm2.66,2.24c0,1.08-1.16,1.71-3,1.71s-3-.63-3-1.71,1.16-1.71,3-1.71S839.66,416.35,839.66,417.42Zm-1,0c0-.59-.74-.91-2-.91s-2,.32-2,.91.73.91,2,.91S838.63,418,838.63,417.42Zm0-5.06v-2.27h1v5.38h-1V413.2H837v-.84Z"/><path d="M849.52,417.17V418h-8.17v-.85h3.55v-1.82h-2.63v-4.66h1v1.52h4.27v-1.52h1v4.66h-2.65v1.82Zm-6.23-2.65h4.27V413h-4.27Z"/><path d="M856.13,415.16a33.71,33.71,0,0,1-5.57.38l-.11-.84c.54,0,1.16,0,1.8,0v-1.85h1v1.82a25.17,25.17,0,0,0,2.79-.24Zm-1.83-1.31a12.84,12.84,0,0,0,.22-2.24H851v-.84h4.53v.52a13.48,13.48,0,0,1-.22,2.67Zm-1.45,4.26h5.09V419h-6.13v-2.68h1Zm6-5.16v.85h-1.2v3.07h-1v-6.78h1V413Z"/><path d="M542.31,393a3.12,3.12,0,0,1-1.7-1.63,3.39,3.39,0,0,1-1.79,1.91l-.54-.79a3,3,0,0,0,1.82-2.71v-1.14h1v1.14a2.63,2.63,0,0,0,1.76,2.45Zm3.71,2.47c0,1-1.18,1.65-3.06,1.65s-3.06-.62-3.06-1.65,1.18-1.66,3.06-1.66S546,394.43,546,395.47Zm-1,0c0-.56-.76-.87-2-.87s-2,.31-2,.87.76.86,2,.86S545,396,545,395.47Zm-1-2.12h-1v-5.09h1v2.15h1V388.1h1v5.54h-1v-2.39h-1Z"/><path d="M553.17,392.9a33.16,33.16,0,0,1-5.61.36l-.11-.73c.68,0,1.47,0,2.3,0V392c-1-.1-1.64-.51-1.64-1.16s.84-1.18,2.15-1.18,2.15.44,2.15,1.18-.61,1.06-1.62,1.16v.47c.78,0,1.57-.1,2.3-.2Zm-.33-3.47h-5.15v-.71h2.06V388h1v.72h2.05Zm-3.15,6.9h5.24V397h-6.26v-2h4.91v-.57h-4.93v-.7h6v1.92h-4.91Zm.57-4.95c.73,0,1.18-.19,1.18-.54s-.45-.53-1.18-.53-1.18.19-1.18.53S549.54,391.38,550.26,391.38Zm5.58-1.06v.85H554.6v2.23h-1v-5.31h1v2.23Z"/><path d="M559.44,394.32c.94,0,1.89-.09,2.77-.21l0,.76a34.84,34.84,0,0,1-5.51.35l-.11-.85,1.79,0v-2.72h1Zm1-1.24a18.83,18.83,0,0,0,.25-3.21h-3.58V389h4.59v.6a21.1,21.1,0,0,1-.25,3.53Zm4.61-.41h-1.33v4.45h-1v-9h1v3.71h1.33Z"/><path d="M571.27,389.79h-5.33V389h2.15V388h1V389h2.15Zm-2.67,3.68c-1.3,0-2.19-.66-2.19-1.64s.89-1.65,2.19-1.65,2.19.66,2.19,1.65S569.9,393.47,568.6,393.47Zm-1.56.71H573v2.94h-1V395H567Zm1.56-1.5c.72,0,1.21-.32,1.21-.85s-.49-.86-1.21-.86-1.2.32-1.2.86S567.88,392.68,568.6,392.68Zm5.66-1.32H573v2.38h-1v-5.65h1v2.42h1.28Z"/><path d="M580.72,393.16a33.83,33.83,0,0,1-5.58.38l-.1-.84c.53,0,1.15,0,1.79,0v-1.85h1v1.82a25.35,25.35,0,0,0,2.8-.24Zm-1.83-1.31a12.84,12.84,0,0,0,.22-2.24h-3.53v-.84h4.54v.52a13.48,13.48,0,0,1-.22,2.67Zm-1.46,4.26h5.1V397h-6.14v-2.68h1Zm6-5.16v.85h-1.2v3.07h-1v-6.78h1V391Z"/><path d="M478.6,263h-3.52v-4.28h1V260h1.6v-1.35h1Zm-1-2.12h-1.6v1.29h1.6ZM476.23,264h6.12v3.12h-1v-2.3h-5.09Zm6.12-5.92v5.42h-1v-2.29h-.95v2.26h-1v-5.22h1v2.12h.95V258.1Z"/><path d="M489.23,262.21a20.92,20.92,0,0,1-4.18.39h-.73v-4.07h1v3.22a20.29,20.29,0,0,0,3.75-.38Zm-4,1.44H491V267H485.2Zm1,2.53H490v-1.71h-3.74Zm6-5.24H491v2.25h-1v-5.1h1v2h1.28Z"/><path d="M498.45,259.79h-5.32V259h2.15V258h1V259h2.14Zm-2.66,3.68c-1.3,0-2.19-.66-2.19-1.64s.89-1.65,2.19-1.65,2.18.66,2.18,1.65S497.09,263.47,495.79,263.47Zm-1.56.71h5.93v2.94h-1V265h-4.9Zm1.56-1.5c.71,0,1.21-.32,1.21-.85s-.5-.86-1.21-.86-1.2.32-1.2.86S495.07,262.68,495.79,262.68Zm5.65-1.32h-1.28v2.38h-1v-5.65h1v2.42h1.28Z"/><path d="M506.91,262.57v.76h2.54v2.18h-5.13v.74h5.39V267H503.3v-2.26h5.14v-.67h-5.16v-.78h2.59v-.76h-3.56v-.82h8.17v.82Zm2.79-1.31a4.47,4.47,0,0,1-3.3-1.7,4.51,4.51,0,0,1-3.31,1.7l-.35-.79c1.81-.18,3.13-1.07,3.13-2.08v-.26h1.05v.26c0,1,1.32,1.9,3.13,2.08Z"/><path d="M516.38,263.18a3.53,3.53,0,0,1-2.1-1.93,3.74,3.74,0,0,1-2.23,2.17l-.53-.82a3.17,3.17,0,0,0,2.21-2.94v-.13h-1.91v-.83h4.82v.83h-1.87v.12a3,3,0,0,0,2.11,2.72Zm2.65,2.24c0,1.08-1.16,1.71-3,1.71s-3-.63-3-1.71,1.16-1.71,3-1.71S519,264.35,519,265.42Zm-1,0c0-.59-.74-.91-2-.91s-2,.32-2,.91.73.91,2,.91S518,266,518,265.42Zm0-5.06v-2.27h1v5.38h-1V261.2h-1.59v-.84Z"/><path d="M528.89,265.17V266h-8.17v-.85h3.56v-1.82h-2.64v-4.66h1v1.52h4.27v-1.52h1v4.66h-2.64v1.82Zm-6.23-2.65h4.27V261h-4.27Z"/><path d="M535.5,263.16a33.64,33.64,0,0,1-5.57.38l-.11-.84c.54,0,1.16,0,1.8,0v-1.85h1v1.82a25,25,0,0,0,2.79-.24Zm-1.82-1.31a12.84,12.84,0,0,0,.22-2.24h-3.53v-.84h4.54v.52a13.48,13.48,0,0,1-.22,2.67Zm-1.46,4.26h5.09V267h-6.13v-2.68h1Zm6-5.16v.85H537v3.07h-1v-6.78h1V261Z"/><path d="M202.74,166.28a3.66,3.66,0,0,1-2.16-2.06,3.88,3.88,0,0,1-2.21,2.23l-.53-.83a3.32,3.32,0,0,0,2.2-3.13v-.9h1.05v.9a3.13,3.13,0,0,0,2.18,3Zm2.76,2.83V170h-6.16v-2.87h1v2Zm-.26-1.41h-1v-6.6h1Z"/><path d="M215.17,166v.83H207V166h3.56v-.87h-2.49v-3.65h1v1h4v-1h1v3.65h-2.52V166Zm-6.11,3.16h5.19V170H208v-2.53h1Zm0-4.85h4v-1h-4Z"/><path d="M221.79,166.16a33.71,33.71,0,0,1-5.57.38l-.11-.84c.54,0,1.16,0,1.8,0v-1.85h1v1.82a25.35,25.35,0,0,0,2.8-.24ZM220,164.85a12.84,12.84,0,0,0,.22-2.24h-3.52v-.84h4.53v.52A13.48,13.48,0,0,1,221,165Zm-1.46,4.26h5.1V170h-6.14v-2.68h1Zm6-5.16v.85h-1.2v3.07h-1v-6.78h1V164Z"/><path d="M102.31,298.73h-6.5V297.5h2.45v-1.18h1.59v1.18h2.47Zm-3.25,4.65c-1.58,0-2.71-.86-2.71-2.13s1.13-2.12,2.71-2.12,2.71.87,2.71,2.12S100.64,303.38,99.06,303.38ZM99,305.93h5.93v1.26H97.38V304H99Zm.09-3.75c.7,0,1.2-.32,1.2-.93s-.5-.92-1.2-.92-1.2.32-1.2.92S98.35,302.18,99.06,302.18ZM106,299.7V301h-1.46v3.59h-1.59v-8.27h1.59v3.37Z"/><path d="M109.93,302.29a2.7,2.7,0,1,1,3-2.67A2.77,2.77,0,0,1,109.93,302.29Zm5.74,2.9c0,1.38-1.45,2.2-3.73,2.2s-3.74-.82-3.74-2.2,1.45-2.18,3.74-2.18S115.67,303.83,115.67,305.19ZM109.93,301a1.35,1.35,0,1,0-1.45-1.34A1.32,1.32,0,0,0,109.93,301Zm4.17,4.23c0-.63-.76-.94-2.16-.94s-2.17.31-2.17.94.75.95,2.17.95S114.1,305.84,114.1,305.19Zm1.45-6.21v1.11H117v1.29h-1.41v1.39H114v-6.44h1.59v1.36H117V299Z"/><path d="M119.76,303.59a19.74,19.74,0,0,0,3-.28l.12,1.29a20.49,20.49,0,0,1-3.94.3h-.77v-7.3h4.09v1.29h-2.53Zm7.61-7.27v11.06h-1.5v-5.53h-1v5H123.4V296.54h1.47v4h1v-4.26Z"/><path d="M131.66,305.33c2.41-2.16,3.83-3.83,3.83-5.2a1.27,1.27,0,0,0-1.33-1.44,2.27,2.27,0,0,0-1.63.92l-1-1a3.6,3.6,0,0,1,2.82-1.35,2.6,2.6,0,0,1,2.79,2.74c0,1.6-1.33,3.33-3,4.92.45,0,1-.1,1.44-.1h1.93v1.49h-5.94Z"/><path d="M144.41,302.77h-5.22v-5.71h1.57v1.68h2.1v-1.66h1.55v2.19h2v-2.93H148v8.15h-1.58v-3.95h-2Zm3.79,3.16v1.26h-7.53V303.7h1.58v2.23Zm-5.34-6h-2.1v1.56h2.1Z"/><path d="M155.55,302.18v.66h3v2.74h-6v.57h6.33v1.14h-7.9v-2.78H157V304H150.9v-1.14H154v-.66h-4.17V301h9.94v1.16Zm-5.38-2.6c2.22-.09,3.3-.62,3.6-1.25h-3.05V297.2H154v-.88h1.58v.88h3.25v1.13h-3.07c.31.63,1.39,1.16,3.61,1.25l-.44,1.17c-2-.11-3.44-.62-4.14-1.43-.68.81-2.07,1.32-4.14,1.43Z"/><path d="M170.79,302.94h-4.24v4.44h-1.61v-4.44h-4.12v-1.27h7a16.36,16.36,0,0,0,.3-3.43H162V297h7.66v1a19,19,0,0,1-.28,3.71h1.45Z"/><path d="M221.51,398.18V399h-8.18v-.85h3.56v-2.25h-2.6v-4.11h1v3.27h5.28v.84h-2.68v2.25Z"/><path d="M227.4,396.63a3.5,3.5,0,0,1-2.18-1.83,3.57,3.57,0,0,1-2.2,2l-.51-.8a3,3,0,0,0,2.17-2.76v-.17h-1.9v-.83h1.9v-1.09h1v1.09h1.89v.83h-1.9v.17a2.82,2.82,0,0,0,2.19,2.59Zm2.84,2.48V400h-6.08v-2.72h1v1.88ZM229,393.8v-2.7h1v6.71h-1v-3.16h-1.66v-.85Z"/><path d="M239.91,394.83v.84h-8.19v-.84h5.93a12,12,0,0,0,.23-2.49h-5.13v-.84h6.14v.63a14.65,14.65,0,0,1-.2,2.7Zm-7.32,2.05h6.35v3.27h-1v-2.44h-5.31Z"/><path d="M245.73,396.14a3.39,3.39,0,0,1-2.12-1.81,3.68,3.68,0,0,1-2.24,2.1l-.52-.81a3.07,3.07,0,0,0,2.21-2.88v-.18h-1.92v-.83H246v.83H244.1v.17a2.79,2.79,0,0,0,2.13,2.61Zm2.35,2.27c0,1.07-1.15,1.71-3,1.71s-3-.64-3-1.71,1.15-1.71,3-1.71S248.08,397.33,248.08,398.41Zm-1,0c0-.59-.73-.9-2-.9s-2,.31-2,.9.73.9,2,.9S247.06,399,247.06,398.41Zm2.2-5.12v.85H248v2.35h-1v-5.4h1v2.2Z"/><path class="cls-3" d="M767.48,304.61,764.25,311,761,304.61h-3.57l4,7.52h-4.33v-7.52h-1.83v-7.54h-8v7.53h-7.53v7.53h-7.53v8h7.53v7.53h8V320.1h18.06v-6l5.14-9.46Zm-27.63,15.05h-7.09v-7.09h7.09Zm8-22.15h7.09v7.09h-7.09ZM753.9,305v5.64h-6.08V305Zm-13.61,0h4.19v7.09h-4.19Zm0,7.53h4.19v7.09h-4.19Zm7.09,14.62h-7.09V320.1h7.09Zm.44-13.77h6.08v6.24h-6.08Zm9.36,6.24v-7.09h4.57l.69,1.28v5.81Z"/><path class="cls-3" d="M776.76,307.12a3.35,3.35,0,0,0-2.87,1.39,6.46,6.46,0,0,0-1,3.88c0,3.46,1.3,5.18,3.89,5.18a12.42,12.42,0,0,0,4-.81v2.75a11,11,0,0,1-4.26.8,6.54,6.54,0,0,1-5.18-2.05,8.71,8.71,0,0,1-1.79-5.89,9.68,9.68,0,0,1,.88-4.23,6.41,6.41,0,0,1,2.53-2.79,7.55,7.55,0,0,1,3.86-1,10.41,10.41,0,0,1,4.54,1.1l-1.06,2.67a15.36,15.36,0,0,0-1.75-.72A5.06,5.06,0,0,0,776.76,307.12Z"/><path class="cls-3" d="M795.28,304.61v10a5.8,5.8,0,0,1-.76,3,5.1,5.1,0,0,1-2.22,2,8,8,0,0,1-3.44.69,6.59,6.59,0,0,1-4.64-1.53,5.44,5.44,0,0,1-1.65-4.19v-10h3.28v9.48a4,4,0,0,0,.72,2.63,3,3,0,0,0,2.38.84,2.89,2.89,0,0,0,2.33-.85,4,4,0,0,0,.73-2.64v-9.46Z"/><path class="cls-3" d="M750.39,324.81h-.48v-1H749v1h-.48v-2.3H749v.9h.92v-.9h.48Z"/><path class="cls-3" d="M752.34,324.81l-.16-.55h-.84l-.17.55h-.52l.81-2.31h.59l.82,2.31Zm-.28-1-.26-.84c0-.06,0-.11,0-.15l-.3,1Z"/><path class="cls-3" d="M755.16,324.81h-.62l-1-1.74h0c0,.31,0,.52,0,.66v1.08h-.44v-2.3h.62l1,1.72h0c0-.3,0-.51,0-.63v-1.09h.44Z"/><path class="cls-3" d="M756.42,323.46l.48-.95h.52l-.76,1.4v.9h-.48v-.88l-.76-1.42h.52Z"/><path class="cls-3" d="M759.08,324.81l-.16-.55h-.84l-.17.55h-.52l.81-2.31h.59l.82,2.31Zm-.28-1-.26-.84c0-.06,0-.11,0-.15l-.3,1Z"/><path class="cls-3" d="M761.9,324.81h-.62l-1-1.74h0c0,.31,0,.52,0,.66v1.08h-.44v-2.3h.62l1,1.72h0c0-.3,0-.51,0-.63v-1.09h.44Z"/><path class="cls-3" d="M763.31,323.52h.91v1.19a2.22,2.22,0,0,1-.41.1,2.69,2.69,0,0,1-.4,0,1,1,0,0,1-.79-.31,1.21,1.21,0,0,1-.28-.87,1.09,1.09,0,0,1,1.2-1.18,1.76,1.76,0,0,1,.68.14l-.16.39a1.21,1.21,0,0,0-.52-.13.64.64,0,0,0-.51.22.84.84,0,0,0-.19.56,1,1,0,0,0,.15.58.54.54,0,0,0,.45.19l.31,0v-.48h-.44Z"/><path class="cls-3" d="M766.52,322.88a.49.49,0,0,0-.43.21,1,1,0,0,0-.15.57c0,.52.19.77.58.77a1.81,1.81,0,0,0,.58-.12v.41a1.61,1.61,0,0,1-.63.12.93.93,0,0,1-.76-.31,1.26,1.26,0,0,1-.27-.87,1.32,1.32,0,0,1,.13-.62,1,1,0,0,1,.37-.42,1.21,1.21,0,0,1,.58-.14,1.53,1.53,0,0,1,.67.16l-.16.4a1.19,1.19,0,0,0-.26-.11A.74.74,0,0,0,766.52,322.88Z"/><path class="cls-3" d="M768.27,323.46l.48-.95h.53l-.77,1.4v.9H768v-.88l-.76-1.42h.53Z"/><path class="cls-3" d="M769.53,322.51h.72a1.36,1.36,0,0,1,.7.14.47.47,0,0,1,.22.44.59.59,0,0,1-.09.34.4.4,0,0,1-.26.16h0a.56.56,0,0,1,.32.19.68.68,0,0,1-.13.84,1,1,0,0,1-.62.18h-.86Zm.49.91h.28a.55.55,0,0,0,.29-.06.23.23,0,0,0,.09-.2.21.21,0,0,0-.1-.19.63.63,0,0,0-.31-.06H770Zm0,.39v.59h.31a.47.47,0,0,0,.3-.07.28.28,0,0,0,.1-.24c0-.19-.14-.28-.41-.28Z"/><path class="cls-3" d="M773,324.81h-1.32v-2.3H773v.4h-.83v.5h.77v.4h-.77v.59H773Z"/><path class="cls-3" d="M773.91,323.93v.88h-.48v-2.3h.66a1.18,1.18,0,0,1,.7.17.61.61,0,0,1,.22.52.66.66,0,0,1-.11.36.75.75,0,0,1-.32.25l.68,1h-.54l-.55-.88Zm0-.4h.16a.61.61,0,0,0,.34-.08.28.28,0,0,0,.11-.24.25.25,0,0,0-.11-.23.66.66,0,0,0-.35-.07h-.15Z"/><path class="cls-3" d="M778.19,322.51V324a.81.81,0,0,1-.12.44.65.65,0,0,1-.32.29,1.19,1.19,0,0,1-.51.11,1,1,0,0,1-.69-.23.82.82,0,0,1-.25-.62v-1.48h.49v1.4a.54.54,0,0,0,.11.39.41.41,0,0,0,.35.13.43.43,0,0,0,.35-.13.59.59,0,0,0,.1-.39v-1.4Z"/><path class="cls-3" d="M780.75,324.81h-.62l-1-1.74h0c0,.31,0,.52,0,.66v1.08h-.43v-2.3h.61l1,1.72h0q0-.45,0-.63v-1.09h.44Z"/><path class="cls-3" d="M781.3,324.81v-2.3h.48v2.3Z"/><path class="cls-3" d="M783.64,322.51h.49l-.78,2.3h-.53l-.78-2.3h.49l.43,1.37c0,.08,0,.17.08.28s0,.18.05.22a3.58,3.58,0,0,1,.12-.5Z"/><path class="cls-3" d="M785.71,324.81h-1.32v-2.3h1.32v.4h-.84v.5h.78v.4h-.78v.59h.84Z"/><path class="cls-3" d="M786.64,323.93v.88h-.48v-2.3h.66a1.18,1.18,0,0,1,.7.17.63.63,0,0,1,.22.52.66.66,0,0,1-.11.36.81.81,0,0,1-.32.25l.68,1h-.54l-.55-.88Zm0-.4h.16a.61.61,0,0,0,.34-.08.28.28,0,0,0,.11-.24.25.25,0,0,0-.11-.23.66.66,0,0,0-.35-.07h-.15Z"/><path class="cls-3" d="M789.6,324.17a.59.59,0,0,1-.22.49,1,1,0,0,1-.63.18,1.51,1.51,0,0,1-.65-.14v-.45a2.79,2.79,0,0,0,.4.14,1,1,0,0,0,.29,0,.44.44,0,0,0,.25-.06.19.19,0,0,0,.08-.18.27.27,0,0,0,0-.12L789,324l-.3-.16a1.3,1.3,0,0,1-.32-.18.92.92,0,0,1-.17-.22.61.61,0,0,1-.06-.28.6.6,0,0,1,.21-.48.88.88,0,0,1,.57-.17,1.27,1.27,0,0,1,.34,0l.34.12-.16.38-.3-.11a1,1,0,0,0-.24,0,.33.33,0,0,0-.21.07.21.21,0,0,0-.07.17.2.2,0,0,0,0,.11l.09.09.31.16a1.28,1.28,0,0,1,.44.31A.6.6,0,0,1,789.6,324.17Z"/><path class="cls-3" d="M790,324.81v-2.3h.49v2.3Z"/><path class="cls-3" d="M791.9,324.81h-.49v-1.89h-.62v-.41h1.73v.41h-.62Z"/><path class="cls-3" d="M793.56,323.46l.48-.95h.52l-.76,1.4v.9h-.48v-.88l-.76-1.42h.52Z"/></g></g></svg>